<?xml version="1.0" encoding="UTF-8" standalone="no"?>
<!-- Created with Inkscape (http://www.inkscape.org/) -->

<svg
   version="1.1"
   id="svg26"
   xml:space="preserve"
   width="1346.9797"
   height="401.66718"
   viewBox="0 0 1346.9797 401.66717"
   xmlns="http://www.w3.org/2000/svg"
   xmlns:svg="http://www.w3.org/2000/svg"><defs
     id="defs30"><clipPath
       clipPathUnits="userSpaceOnUse"
       id="clipPath40"><path
         d="M 0,2000 H 2000 V 0 H 0 Z"
         id="path38" /></clipPath></defs><g
     id="g32"
     transform="matrix(1.3333333,0,0,-1.3333333,-659.84284,1534.1673)"><g
       id="g34"><g
         id="g36"
         clip-path="url(#clipPath40)"><g
           id="g42"
           transform="translate(762.6009,870.7861)"><path
             d="m 0,0 v -13.481 c 0,-2.445 -0.701,-4.376 -2.106,-5.795 -1.402,-1.423 -3.401,-2.135 -5.994,-2.135 -2.596,0 -4.592,0.712 -5.998,2.135 -1.401,1.419 -2.102,3.35 -2.102,5.795 V 0 h 4.379 v -13.193 c 0,-1.299 0.313,-2.33 0.943,-3.092 0.629,-0.765 1.558,-1.146 2.778,-1.146 1.203,0 2.127,0.381 2.775,1.146 0.65,0.762 0.974,1.793 0.974,3.092 V 0 Z"
             style="fill:#1a1a1a;fill-opacity:1;fill-rule:nonzero;stroke:none"
             id="path44" /></g><g
           id="g46"
           transform="translate(790.8734,870.7861)"><path
             d="m 0,0 v -21.411 h -0.113 l -12.422,12.109 v -11.735 h -4.379 V 0.37 h 0.117 L -4.379,-11.735 V 0 Z"
             style="fill:#1a1a1a;fill-opacity:1;fill-rule:nonzero;stroke:none"
             id="path48" /></g><path
           d="m 806.874,849.749 h -4.379 v 21.037 h 4.379 z"
           style="fill:#1a1a1a;fill-opacity:1;fill-rule:nonzero;stroke:none"
           id="path50" /><g
           id="g52"
           transform="translate(836.8401,870.7861)"><path
             d="m 0,0 -10.074,-21.354 h -0.117 L -20.237,0 h 4.809 L -10.135,-12.365 -4.81,0 Z"
             style="fill:#1a1a1a;fill-opacity:1;fill-rule:nonzero;stroke:none"
             id="path54" /></g><g
           id="g56"
           transform="translate(860.136,870.7861)"><path
             d="m 0,0 v -3.98 h -9.217 v -4.55 h 7.987 v -3.693 h -7.987 v -4.838 h 9.446 v -3.976 H -13.596 V 0 Z"
             style="fill:#1a1a1a;fill-opacity:1;fill-rule:nonzero;stroke:none"
             id="path58" /></g><g
           id="g60"
           transform="translate(878.7689,867.0088)"><path
             d="M 0,0 H -3.493 V -6.069 H 0 c 1.05,0 1.882,0.263 2.505,0.786 0.619,0.526 0.929,1.273 0.929,2.248 0,0.954 -0.31,1.697 -0.929,2.23 C 1.882,-0.271 1.05,0 0,0 M 0.402,3.777 C 2.498,3.777 4.27,3.165 5.71,1.945 7.15,0.722 7.869,-0.936 7.869,-3.035 7.869,-4.469 7.524,-5.703 6.827,-6.741 6.13,-7.783 5.19,-8.569 4.006,-9.104 L 8.9,-17.26 H 3.807 l -4.408,7.413 h -2.892 v -7.413 h -4.35 V 3.777 Z"
             style="fill:#1a1a1a;fill-opacity:1;fill-rule:nonzero;stroke:none"
             id="path62" /></g><g
           id="g64"
           transform="translate(903.7835,871.1562)"><path
             d="M 0,0 C 2.995,0 5.446,-0.733 7.354,-2.202 L 5.095,-5.81 c -1.527,1.221 -3.235,1.832 -5.123,1.832 -2.006,0 -3.006,-0.764 -3.006,-2.29 0,-0.612 0.27,-1.092 0.814,-1.444 0.545,-0.352 1.591,-0.673 3.134,-0.961 2.633,-0.551 4.482,-1.33 5.554,-2.33 1.066,-1.003 1.6,-2.344 1.6,-4.023 0,-2.041 -0.708,-3.678 -2.131,-4.909 -1.422,-1.231 -3.361,-1.846 -5.823,-1.846 -3.261,0 -5.983,0.935 -8.157,2.806 l 2.377,3.636 c 0.704,-0.743 1.601,-1.341 2.688,-1.789 1.089,-0.448 2.167,-0.673 3.235,-0.673 1.105,0 1.96,0.203 2.56,0.615 0.602,0.41 0.904,0.997 0.904,1.761 0,0.63 -0.299,1.135 -0.889,1.516 -0.591,0.381 -1.65,0.715 -3.177,1.003 -2.593,0.552 -4.422,1.352 -5.481,2.401 -1.057,1.05 -1.587,2.395 -1.587,4.038 0,1.906 0.676,3.461 2.031,4.663 C -4.026,-0.602 -2.233,0 0,0"
             style="fill:#1a1a1a;fill-opacity:1;fill-rule:nonzero;stroke:none"
             id="path66" /></g><path
           d="m 926.418,849.749 h -4.379 v 21.037 h 4.379 z"
           style="fill:#1a1a1a;fill-opacity:1;fill-rule:nonzero;stroke:none"
           id="path68" /><g
           id="g70"
           transform="translate(954.4388,870.7861)"><path
             d="m 0,0 v -3.838 h -6.841 v -17.199 h -4.35 v 17.199 h -6.812 V 0 Z"
             style="fill:#1a1a1a;fill-opacity:1;fill-rule:nonzero;stroke:none"
             id="path72" /></g><g
           id="g74"
           transform="translate(982.1429,870.7861)"><path
             d="m 0,0 -7.645,-12.422 v -8.615 h -4.35 v 8.53 L -19.693,0 h 5.065 L -9.847,-8.128 -5.065,0 Z"
             style="fill:#1a1a1a;fill-opacity:1;fill-rule:nonzero;stroke:none"
             id="path76" /></g><g
           id="g78"
           transform="translate(1012.9944,867.0088)"><path
             d="M 0,0 H -3.493 V -6.069 H 0 c 1.05,0 1.882,0.263 2.504,0.786 0.619,0.526 0.929,1.273 0.929,2.248 0,0.954 -0.31,1.697 -0.929,2.23 C 1.882,-0.271 1.05,0 0,0 m 0.402,3.777 c 2.095,0 3.867,-0.612 5.307,-1.832 1.441,-1.223 2.159,-2.881 2.159,-4.98 0,-1.434 -0.345,-2.668 -1.042,-3.706 C 6.129,-7.783 5.19,-8.569 4.006,-9.104 L 8.9,-17.26 H 3.807 l -4.409,7.413 H -3.493 V -17.26 H -7.844 V 3.777 Z"
             style="fill:#1a1a1a;fill-opacity:1;fill-rule:nonzero;stroke:none"
             id="path80" /></g><g
           id="g82"
           transform="translate(1045.7493,865.2334)"><path
             d="m 0,0 c -1.191,1.295 -2.725,1.945 -4.592,1.945 -1.871,0 -3.404,-0.65 -4.596,-1.945 -1.192,-1.299 -1.79,-2.967 -1.79,-5.009 0,-2.003 0.598,-3.649 1.79,-4.937 1.192,-1.287 2.725,-1.932 4.596,-1.932 1.867,0 3.401,0.645 4.592,1.932 1.191,1.288 1.789,2.934 1.789,4.937 C 1.789,-2.967 1.191,-1.299 0,0 m -4.592,5.923 c 3.091,0 5.666,-1.035 7.726,-3.106 2.059,-2.07 3.092,-4.677 3.092,-7.826 0,-3.13 -1.033,-5.72 -3.092,-7.772 -2.06,-2.049 -4.635,-3.077 -7.726,-3.077 -3.113,0 -5.688,1.028 -7.73,3.077 -2.042,2.052 -3.063,4.642 -3.063,7.772 0,3.166 1.021,5.78 3.063,7.84 2.042,2.064 4.617,3.092 7.73,3.092"
             style="fill:#1a1a1a;fill-opacity:1;fill-rule:nonzero;stroke:none"
             id="path84" /></g><g
           id="g86"
           transform="translate(1079.5969,870.7861)"><path
             d="m 0,0 -10.074,-21.354 h -0.118 L -20.237,0 h 4.809 L -10.135,-12.365 -4.81,0 Z"
             style="fill:#1a1a1a;fill-opacity:1;fill-rule:nonzero;stroke:none"
             id="path88" /></g><g
           id="g90"
           transform="translate(1102.8889,870.7861)"><path
             d="m 0,0 v -3.98 h -9.217 v -4.55 h 7.987 v -3.693 h -7.987 v -4.838 h 9.445 v -3.976 H -13.596 V 0 Z"
             style="fill:#1a1a1a;fill-opacity:1;fill-rule:nonzero;stroke:none"
             id="path92" /></g><g
           id="g94"
           transform="translate(1121.5217,867.0088)"><path
             d="M 0,0 H -3.493 V -6.069 H 0 c 1.05,0 1.882,0.263 2.505,0.786 0.619,0.526 0.928,1.273 0.928,2.248 0,0.954 -0.309,1.697 -0.928,2.23 C 1.882,-0.271 1.05,0 0,0 m 0.402,3.777 c 2.095,0 3.867,-0.612 5.308,-1.832 1.44,-1.223 2.159,-2.881 2.159,-4.98 0,-1.434 -0.346,-2.668 -1.043,-3.706 C 6.13,-7.783 5.19,-8.569 4.006,-9.104 L 8.9,-17.26 H 3.807 l -4.408,7.413 H -3.493 V -17.26 H -7.844 V 3.777 Z"
             style="fill:#1a1a1a;fill-opacity:1;fill-rule:nonzero;stroke:none"
             id="path96" /></g><g
           id="g98"
           transform="translate(1169.8899,870.7861)"><path
             d="m 0,0 v -3.838 h -6.841 v -17.199 h -4.35 v 17.199 h -6.812 V 0 Z"
             style="fill:#1a1a1a;fill-opacity:1;fill-rule:nonzero;stroke:none"
             id="path100" /></g><g
           id="g102"
           transform="translate(1193.4709,870.7861)"><path
             d="m 0,0 v -3.98 h -9.217 v -4.55 h 7.986 v -3.693 h -7.986 v -4.838 h 9.445 v -3.976 H -13.596 V 0 Z"
             style="fill:#1a1a1a;fill-opacity:1;fill-rule:nonzero;stroke:none"
             id="path104" /></g><g
           id="g106"
           transform="translate(1212.5334,862.7148)"><path
             d="m 0,0 -2.664,-6.296 h 5.325 z m 0.058,8.441 10.159,-21.407 h -4.81 l -1.373,3.262 h -8.071 l -1.373,-3.262 h -4.81 L -0.06,8.441 Z"
             style="fill:#1a1a1a;fill-opacity:1;fill-rule:nonzero;stroke:none"
             id="path108" /></g><g
           id="g110"
           transform="translate(1253.6301,871.1562)"><path
             d="m 0,0 v -21.407 h -4.35 v 8.843 l -6.126,-9.128 h -0.227 l -6.126,9.128 v -8.843 h -4.379 V 0 h 0.117 L -10.59,-14.823 -0.113,0 Z"
             style="fill:#1a1a1a;fill-opacity:1;fill-rule:nonzero;stroke:none"
             id="path112" /></g><g
           id="g114"
           transform="translate(677.6263,938.7412)"><path
             d="M 0,0 C 0,-0.802 -0.109,-1.421 -0.327,-1.858 -0.582,-2.331 -0.838,-2.659 -1.129,-2.842 -1.457,-3.024 -1.785,-3.134 -2.148,-3.17 -2.55,-3.206 -2.878,-3.242 -3.132,-3.242 h -48.921 v 52.089 h 42.255 c 2.04,0 3.06,-1.057 3.06,-3.169 v -2.805 c 0,-1.931 -0.292,-3.679 -0.875,-5.209 -0.582,-1.53 -1.42,-2.877 -2.55,-3.971 -1.093,-1.092 -2.403,-1.93 -3.97,-2.548 -1.566,-0.584 -3.315,-0.875 -5.245,-0.875 H -46.115 V 15.335 h 33.402 c 1.931,0 3.68,-0.292 5.246,-0.874 C -5.9,13.877 -4.59,13.04 -3.46,11.911 -2.367,10.818 -1.529,9.507 -0.91,7.977 -0.291,6.411 0,4.699 0,2.731 Z m 13.842,10.672 c -0.618,2.405 -1.529,4.554 -2.622,6.448 -1.093,1.894 -2.368,3.569 -3.825,4.99 -1.457,1.457 -3.06,2.695 -4.7,3.716 1.931,2.695 3.316,5.572 4.19,8.596 0.875,3.023 1.311,5.829 1.311,8.451 v 2.805 c 0,3.314 -0.583,6.083 -1.785,8.379 -1.202,2.257 -2.695,4.115 -4.516,5.536 -1.786,1.42 -3.752,2.477 -5.829,3.132 -2.076,0.619 -4.043,0.947 -5.864,0.947 H -59.41 c -1.057,0 -2.04,-0.182 -2.951,-0.547 -0.91,-0.4 -1.712,-0.91 -2.368,-1.602 -0.656,-0.692 -1.202,-1.494 -1.566,-2.404 -0.364,-0.911 -0.583,-1.894 -0.583,-2.914 V -10.6 c 0,-1.056 0.219,-2.04 0.583,-2.951 0.364,-0.91 0.91,-1.713 1.566,-2.368 0.656,-0.655 1.458,-1.201 2.368,-1.566 0.911,-0.4 1.894,-0.582 2.951,-0.582 h 56.278 c 3.315,0 6.083,0.619 8.378,1.785 2.295,1.202 4.116,2.695 5.572,4.479 1.421,1.785 2.442,3.752 3.061,5.829 0.619,2.076 0.947,4.043 0.947,5.865 v 2.84 c 0,2.915 -0.328,5.538 -0.984,7.941"
             style="fill:#1a1a1a;fill-opacity:1;fill-rule:nonzero;stroke:none"
             id="path116" /></g><path
           d="m 706.221,994.946 h 14.825 v 13.405 h -14.825 z m 0,-74.272 h 14.825 v 61.633 h -14.825 z"
           style="fill:#1a1a1a;fill-opacity:1;fill-rule:nonzero;stroke:none"
           id="path118" /><g
           id="g120"
           transform="translate(804.6077,963.874)"><path
             d="m 0,0 c -0.837,2.659 -1.967,5.027 -3.388,7.067 -1.421,2.003 -3.059,3.752 -4.881,5.173 -1.857,1.42 -3.788,2.622 -5.828,3.533 -2.04,0.948 -4.079,1.603 -6.156,2.04 -2.076,0.401 -4.043,0.62 -5.9,0.62 h -33.404 c -1.019,0 -2.004,-0.183 -2.914,-0.583 -0.911,-0.365 -1.712,-0.911 -2.367,-1.567 -0.692,-0.656 -1.239,-1.421 -1.602,-2.331 -0.402,-0.874 -0.584,-1.858 -0.584,-2.878 V -43.2 h 14.826 V 3.606 h 25.935 c 1.785,0 3.46,-0.292 4.991,-0.874 1.529,-0.582 2.877,-1.457 4.006,-2.549 1.165,-1.093 2.04,-2.404 2.733,-3.97 0.655,-1.53 0.983,-3.279 0.983,-5.21 V -43.2 H 1.274 V -8.997 C 1.274,-5.646 0.838,-2.658 0,0"
             style="fill:#1a1a1a;fill-opacity:1;fill-rule:nonzero;stroke:none"
             id="path122" /></g><g
           id="g124"
           transform="translate(887.2591,968.3916)"><path
             d="m 0,0 c -0.619,2.003 -1.493,3.788 -2.55,5.317 -1.056,1.568 -2.296,2.878 -3.716,3.935 -1.383,1.093 -2.878,1.967 -4.407,2.659 -1.53,0.692 -3.097,1.202 -4.663,1.494 -1.602,0.327 -3.06,0.51 -4.48,0.51 h -26.737 c -2.55,0 -4.844,-0.328 -6.847,-0.984 -2.004,-0.656 -3.789,-1.493 -5.32,-2.549 -1.529,-1.057 -2.841,-2.295 -3.933,-3.716 -1.093,-1.421 -1.967,-2.878 -2.66,-4.407 -0.692,-1.53 -1.166,-3.097 -1.494,-4.663 -0.327,-1.566 -0.508,-3.024 -0.508,-4.444 v -20.071 c 0,-2.55 0.327,-4.809 0.983,-6.849 0.655,-2.04 1.493,-3.824 2.55,-5.354 1.093,-1.566 2.295,-2.877 3.715,-3.934 1.421,-1.092 2.878,-1.966 4.408,-2.658 1.566,-0.693 3.096,-1.203 4.662,-1.531 1.566,-0.29 3.023,-0.473 4.444,-0.473 h 26.737 v 14.825 h -26.627 c -1.968,0 -3.461,0.51 -4.518,1.531 -1.019,1.055 -1.529,2.512 -1.529,4.443 v 20.071 c 0,1.712 0.546,3.132 1.602,4.262 1.057,1.129 2.514,1.675 4.335,1.675 h 26.737 c 2.004,0 3.497,-0.51 4.517,-1.493 0.984,-1.02 1.456,-2.513 1.456,-4.444 v -46.808 c 0,-1.931 -0.472,-3.387 -1.456,-4.444 -1.02,-1.02 -2.513,-1.529 -4.517,-1.529 h -26.737 v -14.826 h 26.737 c 1.42,0 2.878,0.183 4.48,0.511 1.566,0.291 3.133,0.799 4.663,1.493 1.529,0.691 3.024,1.565 4.407,2.659 1.42,1.093 2.66,2.367 3.716,3.933 1.057,1.531 1.931,3.315 2.55,5.355 0.655,2.04 0.983,4.335 0.983,6.848 V -6.848 C 0.983,-4.298 0.655,-2.003 0,0"
             style="fill:#1a1a1a;fill-opacity:1;fill-rule:nonzero;stroke:none"
             id="path126" /></g><path
           d="m 904.379,920.674 h 14.825 v 87.678 h -14.825 z m 67.315,47.718 c -0.656,2.003 -1.493,3.788 -2.549,5.317 -1.094,1.567 -2.295,2.878 -3.716,3.935 -1.42,1.092 -2.878,1.966 -4.407,2.659 -1.567,0.691 -3.097,1.202 -4.663,1.494 -1.567,0.327 -3.024,0.51 -4.444,0.51 H 925.178 V 967.48 h 26.737 c 1.967,0 3.46,-0.509 4.444,-1.493 0.983,-1.019 1.494,-2.512 1.494,-4.443 v -40.87 h 14.825 v 40.87 c 0,2.55 -0.328,4.845 -0.984,6.848"
           style="fill:#1a1a1a;fill-opacity:1;fill-rule:nonzero;stroke:none"
           id="path128" /><g
           id="g130"
           transform="translate(1050.1194,971.3789)"><path
             d="m 0,0 c -1.348,2.622 -3.06,4.698 -5.1,6.338 -2.04,1.602 -4.225,2.768 -6.592,3.496 -2.405,0.729 -4.59,1.094 -6.666,1.094 H -50.887 V -3.169 h 32.529 c 1.821,0 3.351,-0.547 4.552,-1.713 1.202,-1.13 1.785,-2.659 1.785,-4.589 v -20.69 c 0,-1.859 -0.545,-3.352 -1.639,-4.59 -1.129,-1.201 -2.658,-1.821 -4.698,-1.821 h -26.591 c -1.749,0 -3.278,0.547 -4.554,1.638 -1.274,1.093 -1.894,2.586 -1.894,4.518 0,1.821 0.546,3.352 1.639,4.589 1.093,1.239 2.659,1.858 4.663,1.858 h 26.737 v 14.134 h -26.737 c -3.715,0 -6.885,-0.692 -9.471,-2.04 -2.622,-1.384 -4.7,-3.06 -6.338,-5.1 -1.603,-2.04 -2.769,-4.262 -3.497,-6.629 -0.728,-2.404 -1.093,-4.626 -1.093,-6.704 0,-3.714 0.692,-6.883 2.077,-9.469 1.347,-2.623 3.06,-4.736 5.099,-6.338 2.004,-1.603 4.225,-2.769 6.593,-3.497 2.368,-0.73 4.59,-1.093 6.63,-1.093 h 26.737 c 3.752,0 6.92,0.691 9.506,2.076 2.587,1.348 4.7,3.06 6.339,5.1 1.603,2.003 2.768,4.224 3.496,6.592 0.729,2.369 1.093,4.589 1.093,6.629 V -9.471 C 2.076,-5.756 1.385,-2.587 0,0"
             style="fill:#1a1a1a;fill-opacity:1;fill-rule:nonzero;stroke:none"
             id="path132" /></g><g
           id="g134"
           transform="translate(1154.553,968.3916)"><path
             d="m 0,0 c -0.655,2.003 -1.493,3.788 -2.55,5.317 -1.055,1.568 -2.295,2.878 -3.716,3.935 -1.42,1.093 -2.877,1.967 -4.407,2.659 -1.529,0.692 -3.096,1.202 -4.663,1.494 -1.565,0.327 -3.022,0.51 -4.443,0.51 H -39.851 V 9.361 c -2.112,1.567 -4.37,2.733 -6.702,3.46 -2.367,0.73 -4.589,1.094 -6.629,1.094 h -26.737 c -1.019,0 -2.003,-0.183 -2.914,-0.583 -0.91,-0.364 -1.712,-0.91 -2.367,-1.566 -0.693,-0.657 -1.238,-1.421 -1.603,-2.331 -0.401,-0.874 -0.583,-1.859 -0.583,-2.878 v -54.275 h 14.825 v 46.807 h 19.27 c 2.004,0 3.533,-0.51 4.553,-1.493 1.02,-1.02 1.53,-2.513 1.53,-4.444 v -40.87 h 14.825 v 40.87 c 0,2.149 -0.255,4.116 -0.728,5.937 h 13.332 c 2.004,0 3.497,-0.51 4.48,-1.493 0.984,-1.02 1.457,-2.513 1.457,-4.444 v -40.87 H 0.983 v 40.87 C 0.983,-4.298 0.656,-2.003 0,0"
             style="fill:#1a1a1a;fill-opacity:1;fill-rule:nonzero;stroke:none"
             id="path136" /></g><g
           id="g138"
           transform="translate(1291.26,941.4727)"><path
             d="M 0,0 C 0,-1.931 -0.51,-3.388 -1.493,-4.443 -2.477,-5.464 -3.97,-5.974 -6.01,-5.974 h -26.592 c -2.002,0 -3.496,0.51 -4.516,1.531 -1.02,1.055 -1.529,2.512 -1.529,4.443 v 20.071 c 0,1.931 0.509,3.424 1.529,4.444 1.02,0.983 2.514,1.493 4.516,1.493 H -6.01 c 1.967,0 3.424,-0.51 4.444,-1.493 C -0.51,23.531 0,22.002 0,19.962 Z m 13.696,26.846 c -0.728,2.441 -1.93,4.699 -3.569,6.775 -1.64,2.077 -3.788,3.789 -6.448,5.173 -2.659,1.348 -5.865,2.04 -9.689,2.04 h -26.737 c -2.04,0 -4.262,-0.364 -6.702,-1.094 -2.441,-0.727 -4.699,-1.893 -6.776,-3.569 -2.076,-1.639 -3.788,-3.788 -5.171,-6.447 -1.385,-2.623 -2.078,-5.829 -2.078,-9.653 V 0 c 0,-3.825 0.693,-7.067 2.078,-9.688 1.383,-2.66 3.095,-4.809 5.171,-6.449 2.077,-1.675 4.335,-2.841 6.776,-3.569 2.44,-0.73 4.662,-1.093 6.702,-1.093 H -6.01 c 1.42,0 2.914,0.183 4.481,0.473 1.565,0.328 3.132,0.838 4.698,1.531 1.53,0.691 2.987,1.566 4.408,2.658 1.384,1.057 2.622,2.368 3.715,3.934 1.057,1.53 1.895,3.314 2.55,5.354 0.656,2.04 0.983,4.299 0.983,6.849 v 20.071 c 0,2.113 -0.4,4.371 -1.129,6.775"
             style="fill:#1a1a1a;fill-opacity:1;fill-rule:nonzero;stroke:none"
             id="path140" /></g><g
           id="g142"
           transform="translate(1388.0442,963.874)"><path
             d="m 0,0 c -0.838,2.659 -1.967,5.027 -3.388,7.067 -1.421,2.003 -3.059,3.752 -4.918,5.173 -1.821,1.42 -3.788,2.622 -5.791,3.533 -2.04,0.948 -4.116,1.603 -6.156,2.04 -2.076,0.401 -4.043,0.62 -5.937,0.62 h -33.403 c -1.019,0 -1.967,-0.183 -2.878,-0.583 -0.91,-0.365 -1.712,-0.911 -2.404,-1.567 -0.691,-0.656 -1.201,-1.421 -1.603,-2.331 -0.364,-0.874 -0.545,-1.858 -0.545,-2.878 V -43.2 h 14.789 V 3.606 H -26.3 c 1.785,0 3.461,-0.292 4.99,-0.874 1.568,-0.582 2.878,-1.457 4.044,-2.549 1.129,-1.093 2.04,-2.404 2.696,-3.97 0.655,-1.53 0.983,-3.279 0.983,-5.21 V -43.2 H 1.239 V -8.997 C 1.239,-5.646 0.838,-2.658 0,0"
             style="fill:#1a1a1a;fill-opacity:1;fill-rule:nonzero;stroke:none"
             id="path144" /></g><g
           id="g146"
           transform="translate(1186.1711,1002.4136)"><path
             d="m 0,0 v -13.041 h 1.712 c 1.093,0 1.931,-0.837 1.931,-1.93 0,-1.057 -0.838,-1.93 -1.931,-1.93 H 0 V -81.74 h 15.007 v 64.911 c -0.801,0.218 -1.42,0.984 -1.42,1.858 0,0.91 0.619,1.639 1.42,1.857 V 0 Z"
             style="fill:#1a1a1a;fill-opacity:1;fill-rule:nonzero;stroke:none"
             id="path148" /></g><g
           id="g150"
           transform="translate(1206.3508,985.5127)"><path
             d="m 0,0 h -4.662 c -0.183,0 -0.328,0.035 -0.511,0.072 -0.801,0.218 -1.42,0.984 -1.42,1.858 0,0.91 0.619,1.639 1.42,1.857 0.183,0.036 0.328,0.073 0.511,0.073 H 0 C 1.093,3.86 1.967,3.022 1.967,1.93 1.967,0.873 1.093,0 0,0 M 15.627,7.139 H -9.58 V -3.789 h 29.833 z"
             style="fill:#1a1a1a;fill-opacity:1;fill-rule:nonzero;stroke:none"
             id="path152" /></g><g
           id="g154"
           transform="translate(1245.3274,996.9131)"><path
             d="M 0,0 -16.355,-13.842 -20.8,-3.278 -7.541,7.941 C -6.375,4.298 -3.57,1.384 0,0"
             style="fill:#1a1a1a;fill-opacity:1;fill-rule:nonzero;stroke:none"
             id="path156" /></g><g
           id="g158"
           transform="translate(1256.1975,1005.8613)"><path
             d="m 0,0 c -1.737,-3.24 -5.717,-4.619 -9.089,-3.044 -3.372,1.574 -4.871,5.509 -3.502,8.922 l -3.63,1.694 c -2.3,-5.417 0.065,-11.738 5.438,-14.246 5.374,-2.509 11.737,-0.262 14.412,4.98 z"
             style="fill:#1a1a1a;fill-opacity:1;fill-rule:nonzero;stroke:none"
             id="path160" /></g><g
           id="g162"
           transform="translate(1163.0403,993.4531)"><path
             d="M 0,0 -4.444,-10.564 -21.018,3.46 c 3.57,1.384 6.374,4.298 7.54,7.941 z"
             style="fill:#1a1a1a;fill-opacity:1;fill-rule:nonzero;stroke:none"
             id="path164" /></g><g
           id="g166"
           transform="translate(1187.8831,985.5127)"><path
             d="m 0,0 h -4.662 c -1.057,0 -1.931,0.873 -1.931,1.93 0,1.092 0.874,1.93 1.931,1.93 H 0 C 1.093,3.86 1.931,3.022 1.931,1.93 1.931,0.873 1.093,0 0,0 M -22.22,7.139 -26.847,-3.789 H 2.695 V 7.139 Z"
             style="fill:#1a1a1a;fill-opacity:1;fill-rule:nonzero;stroke:none"
             id="path168" /></g><g
           id="g170"
           transform="translate(1131.1604,1005.8613)"><path
             d="m 0,0 c 1.737,-3.24 5.717,-4.619 9.089,-3.044 3.372,1.574 4.871,5.509 3.503,8.922 l 3.629,1.694 C 18.521,2.155 16.157,-4.166 10.783,-6.674 5.409,-9.183 -0.954,-6.936 -3.629,-1.694 Z"
             style="fill:#1a1a1a;fill-opacity:1;fill-rule:nonzero;stroke:none"
             id="path172" /></g><g
           id="g174"
           transform="translate(1277.0813,868.4385)"><path
             d="m 0,0 c 33.482,7.29 66.654,16.094 98.919,27.415 16.127,5.664 31.957,12.145 47.294,19.565 15.269,7.511 30.103,16.028 43.315,26.516 13.091,10.379 25.049,23.106 30.098,38.602 4.986,15.5 0.331,32.543 -10.077,45.217 -4.837,6.642 -11.15,12.199 -17.443,17.63 -3.381,2.476 -6.635,5.106 -10.11,7.462 -3.556,2.253 -6.96,4.711 -10.63,6.797 -14.485,8.621 -29.842,15.907 -45.631,22.135 -31.583,12.498 -64.463,21.753 -97.663,29.431 -33.213,7.705 -66.919,13.337 -100.748,17.868 -67.702,8.929 -136.076,12.776 -204.391,12.633 -68.315,0.117 -136.688,-3.71 -204.39,-12.644 -33.829,-4.53 -67.535,-10.163 -100.748,-17.866 -33.201,-7.674 -66.071,-16.957 -97.658,-29.439 -15.789,-6.226 -31.145,-13.51 -45.631,-22.129 -3.67,-2.085 -7.074,-4.543 -10.63,-6.795 -3.476,-2.355 -6.728,-4.984 -10.11,-7.461 -6.295,-5.428 -12.606,-10.983 -17.445,-17.622 -10.411,-12.67 -15.067,-29.706 -10.09,-45.204 5.046,-15.491 16.996,-28.225 30.092,-38.594 13.209,-10.49 28.043,-19.005 43.312,-26.516 15.337,-7.42 31.166,-13.9 47.293,-19.563 32.265,-11.319 65.439,-20.115 98.923,-27.402 -33.718,6.13 -67.193,13.972 -99.857,24.661 -16.341,5.303 -32.433,11.441 -48.126,18.574 -15.633,7.236 -30.916,15.504 -44.833,26.016 -6.941,5.257 -13.487,11.151 -19.204,17.898 -5.691,6.74 -10.535,14.436 -13.455,23.046 -1.265,4.349 -2.371,8.822 -2.477,13.413 -0.268,2.287 0.083,4.564 0.22,6.848 l 0.275,3.426 c 0.195,1.122 0.514,2.22 0.769,3.332 l 0.82,3.326 c 0.237,1.124 0.563,2.211 1.048,3.238 l 2.61,6.283 c 2.267,3.865 4.303,7.95 7.166,11.368 10.727,14.356 24.959,25.111 39.711,34.262 14.837,9.123 30.45,16.795 46.44,23.377 15.991,6.594 32.286,12.355 48.753,17.51 16.524,4.938 33.157,9.513 49.949,13.35 33.529,7.947 67.484,13.789 101.554,18.52 68.177,9.319 136.963,13.538 205.719,13.703 68.755,-0.188 137.541,-4.387 205.717,-13.711 34.071,-4.729 68.026,-10.571 101.554,-18.518 16.79,-3.843 33.429,-8.398 49.944,-13.364 16.467,-5.154 32.761,-10.914 48.751,-17.51 15.991,-6.58 31.603,-14.252 46.438,-23.376 14.752,-9.149 28.98,-19.906 39.705,-34.26 2.86,-3.419 4.896,-7.503 7.161,-11.368 l 2.609,-6.283 c 0.485,-1.026 0.808,-2.115 1.045,-3.238 l 0.821,-3.325 c 0.254,-1.111 0.576,-2.209 0.767,-3.331 l 0.275,-3.424 c 0.137,-2.285 0.485,-4.561 0.217,-6.847 -0.106,-4.59 -1.211,-9.062 -2.478,-13.408 -2.921,-8.608 -7.765,-16.303 -13.456,-23.041 C 206.285,80.438 199.745,74.538 192.797,69.291 178.882,58.78 163.601,50.51 147.97,43.272 132.278,36.136 116.188,29.995 99.849,24.688 67.188,13.992 33.715,6.144 0,0"
             style="fill:#1a1a1a;fill-opacity:1;fill-rule:nonzero;stroke:none"
             id="path176" /></g><g
           id="g178"
           transform="translate(1084.8401,1054.2461)"><path
             d="M 0,0 4.42,0.634 0,1.269 C -3.489,1.77 -6.231,4.511 -6.732,8 L -7.366,12.42 -8.001,8 C -8.502,4.511 -11.243,1.77 -14.732,1.269 L -19.152,0.634 -14.732,0 c 3.489,-0.501 6.23,-3.242 6.731,-6.731 l 0.635,-4.421 0.634,4.421 C -6.231,-3.242 -3.489,-0.501 0,0"
             style="fill:#1a1a1a;fill-opacity:1;fill-rule:nonzero;stroke:none"
             id="path180" /></g><g
           id="g182"
           transform="translate(1329.6292,1038.269)"><path
             d="M 0,0 5.213,0.749 0,1.497 c -4.116,0.59 -7.35,3.824 -7.94,7.94 L -8.688,14.65 -9.437,9.437 c -0.59,-4.116 -3.824,-7.35 -7.939,-7.94 L -22.59,0.749 -17.376,0 c 4.115,-0.59 7.349,-3.824 7.939,-7.939 l 0.749,-5.214 0.748,5.214 C -7.35,-3.824 -4.116,-0.59 0,0"
             style="fill:#1a1a1a;fill-opacity:1;fill-rule:nonzero;stroke:none"
             id="path184" /></g><g
           id="g186"
           transform="translate(722.3216,1045.8252)"><path
             d="M 0,0 5.214,0.749 0,1.497 c -4.115,0.59 -7.349,3.824 -7.939,7.94 L -8.688,14.65 -9.436,9.437 c -0.59,-4.116 -3.824,-7.35 -7.94,-7.94 L -22.589,0.749 -17.376,0 c 4.116,-0.59 7.35,-3.824 7.94,-7.939 l 0.748,-5.214 0.749,5.214 C -7.349,-3.824 -4.115,-0.59 0,0"
             style="fill:#1a1a1a;fill-opacity:1;fill-rule:nonzero;stroke:none"
             id="path188" /></g><g
           id="g190"
           transform="translate(829.4837,1034.8232)"><path
             d="m 0,0 c 0,-3.245 -2.631,-5.875 -5.875,-5.875 -3.245,0 -5.875,2.63 -5.875,5.875 0,3.245 2.63,5.875 5.875,5.875 C -2.631,5.875 0,3.245 0,0"
             style="fill:#1a1a1a;fill-opacity:1;fill-rule:nonzero;stroke:none"
             id="path192" /></g><g
           id="g194"
           transform="translate(957.8382,1082.7827)"><path
             d="m 0,0 c 0,-12.32 -9.987,-22.308 -22.308,-22.308 -12.32,0 -22.307,9.988 -22.307,22.308 0,12.32 9.987,22.308 22.307,22.308 C -9.987,22.308 0,12.32 0,0"
             style="fill:#1a1a1a;fill-opacity:1;fill-rule:nonzero;stroke:none"
             id="path196" /></g><g
           id="g198"
           transform="translate(1233.7717,1075.9497)"><path
             d="m 0,0 c 0,-7.593 -6.155,-13.748 -13.748,-13.748 -7.593,0 -13.748,6.155 -13.748,13.748 0,7.593 6.155,13.748 13.748,13.748 C -6.155,13.748 0,7.593 0,0"
             style="fill:#1a1a1a;fill-opacity:1;fill-rule:nonzero;stroke:none"
             id="path200" /></g></g></g></g></svg>
